<?xml version="1.0" encoding="UTF-8"?>
<svg id="Layer_2" data-name="Layer 2" xmlns="http://www.w3.org/2000/svg" viewBox="0 0 107.32 107.32">
  <defs>
    <style>
      .cls-1 {
        fill: #a0ec06;
        stroke-width: 0px;
      }
    </style>
  </defs>
  <g id="Layer_1-2" data-name="Layer 1">
    <path class="cls-1" d="M107.32,50.08v7.16c0,3.95-3.2,7.15-7.15,7.15h-7.16c-3.95,0-7.15,3.21-7.15,7.16v7.15c0,3.96-3.21,7.16-7.16,7.16h-7.15c-3.95,0-7.16,3.2-7.16,7.15v7.16c0,3.95-3.2,7.15-7.15,7.15h-7.16c-3.95,0-7.15-3.2-7.15-7.15v-7.16c0-3.95-3.21-7.15-7.16-7.15h-7.15c-3.95,0-7.16-3.2-7.16-7.16v-7.15c0-3.95-3.2-7.16-7.15-7.16h-7.16c-3.95,0-7.15-3.2-7.15-7.15v-7.16c0-3.95,3.2-7.15,7.15-7.15h7.16c3.95,0,7.15-3.21,7.15-7.16v-7.15c0-3.95,3.21-7.16,7.16-7.16h7.15c3.95,0,7.16-3.2,7.16-7.15v-7.16c0-3.95,3.2-7.15,7.15-7.15h7.16c3.95,0,7.15,3.2,7.15,7.15v7.16c0,3.95-3.2,7.15-7.15,7.15h-7.16c-3.95,0-7.15,3.21-7.15,7.16v7.15c0,3.95-3.21,7.16-7.16,7.16h-7.15c-3.95,0-7.16,3.2-7.16,7.15v7.16c0,3.95,3.21,7.15,7.16,7.15h7.15c3.95,0,7.16,3.21,7.16,7.16v7.15c0,3.96,3.2,7.16,7.15,7.16h7.16c3.95,0,7.15-3.2,7.15-7.16v-7.15c0-3.95,3.21-7.16,7.16-7.16h7.15c3.95,0,7.16-3.2,7.16-7.15v-7.16c0-3.95-3.21-7.15-7.16-7.15h-7.15c-3.95,0-7.16,3.2-7.16,7.15v7.16c0,3.95-3.2,7.15-7.15,7.15h-7.16c-3.95,0-7.15-3.2-7.15-7.15v-7.16c0-3.95,3.2-7.15,7.15-7.15h7.16c3.95,0,7.15-3.21,7.15-7.16v-7.15c0-3.95,3.21-7.16,7.16-7.16h7.15c3.95,0,7.16,3.21,7.16,7.16v7.15c0,3.95,3.2,7.16,7.15,7.16h7.16c3.95,0,7.15,3.2,7.15,7.15Z"/>
  </g>
</svg>